<svg id="Group_61" data-name="Group 61" xmlns="http://www.w3.org/2000/svg" xmlns:xlink="http://www.w3.org/1999/xlink" width="25" height="25" viewBox="0 0 25 25">
  <defs>
    <clipPath id="clipPath">
      <rect id="Rectangle_326" data-name="Rectangle 326" width="25" height="25" fill="none"/>
    </clipPath>
  </defs>
  <g id="Group_60" data-name="Group 60" clipPath="url(#clipPath)">
    <path id="Path_54" data-name="Path 54" d="M11.235,12.507l-3.4,3.4Q4.089,19.65.338,23.4a.937.937,0,0,0-.316.9.891.891,0,0,0,1.429.5,2.994,2.994,0,0,0,.241-.232q5.278-5.275,10.554-10.552a2.529,2.529,0,0,0,.212-.282c.13.123.211.2.288.274L23.321,24.58c.5.5,1.015.556,1.414.161s.345-.921-.147-1.414Q19.3,18.04,14.014,12.755a2.207,2.207,0,0,0-.284-.2c.131-.138.206-.218.283-.3q5.3-5.3,10.594-10.592a.943.943,0,0,0,.323-.925A.889.889,0,0,0,23.512.247a2.525,2.525,0,0,0-.222.212Q18.022,5.723,12.756,10.99a2.262,2.262,0,0,0-.206.284c-.136-.13-.217-.2-.294-.281Q6.94,5.676,1.626.357A.952.952,0,0,0,.7.023.891.891,0,0,0,.2,1.453a2.946,2.946,0,0,0,.231.242L11.007,12.269c.071.071.139.145.228.238" transform="translate(-0.001 0)"/>
  </g>
</svg>
