<svg xmlns="http://www.w3.org/2000/svg" width="10.133" height="25" viewBox="0 0 20.133 25">
  <path id="flag-svgrepo-com" d="M7.459,17.639H6.25c0,.028,0,.056,0,.084ZM8.72,18.745V17.536l-.073,0Zm15.213,0,.143-1.2a1.206,1.206,0,0,0-.143-.009ZM25,18.235l1.024.644h0Zm0-1.186,1.021-.648c-.012-.019-.025-.038-.038-.056ZM21.879,12.7l.983-.7-.01-.013Zm0-1.179.974.718.009-.013ZM25,7.163l.983.7c.013-.018.026-.037.038-.056Zm0-1.185,1.024-.644h0Zm-1.07-.511V6.676a1.209,1.209,0,0,0,.143-.008Zm-15.213,0L8.647,6.674l.073,0ZM7.459,6.573,6.253,6.489q0,.042,0,.085ZM8.669,17.639a1.209,1.209,0,1,0-2.419,0ZM6.25,28.041a1.209,1.209,0,1,0,2.419,0Zm0-10.317a2.4,2.4,0,0,0,2.541,2.229l-.147-2.414h.007l.005,0,0,.005,0,0v0ZM8.72,19.954H23.933V17.536H8.72Zm15.07-.008a2.319,2.319,0,0,0,2.236-1.068L23.979,17.59a.1.1,0,0,1,.1-.046Zm2.236-1.068a2.318,2.318,0,0,0-.005-2.478L23.98,17.7a.1.1,0,0,1,0-.107Zm-.043-2.534-3.122-4.354L20.9,13.4l3.122,4.354Zm-3.131-4.366a.216.216,0,0,1,0,.256L20.906,10.8a2.2,2.2,0,0,0,0,2.614Zm.009.244,3.122-4.353L24.018,6.459,20.9,10.812Zm3.16-4.41a2.318,2.318,0,0,0,.005-2.478L23.979,6.622a.1.1,0,0,1,0-.107Zm.005-2.478a2.319,2.319,0,0,0-2.236-1.068l.285,2.4a.1.1,0,0,1-.1-.046ZM23.933,4.258H8.72V6.676H23.933Zm-15.14,0A2.4,2.4,0,0,0,6.253,6.489l2.413.169v0l0,0,0,.005-.005,0H8.647ZM6.25,6.573V17.639H8.669V6.573Zm0,11.066v6.038H8.669V17.639Zm0,6.038v4.363H8.669V23.677Z" transform="translate(-6.25 -4.25)" fill="#ff6363"/>
</svg>
