<svg xmlns="http://www.w3.org/2000/svg" width="45.699" height="20" viewBox="0 0 45.699 20">
  <g id="Group_3248" data-name="Group 3248" transform="translate(0 -3.865)">
    <rect id="Rectangle_17" data-name="Rectangle 17" width="27.038" height="4.687" transform="translate(18.661 3.865)" fill="#0003ff"/>
    <rect id="Rectangle_18" data-name="Rectangle 18" width="43.633" height="4.689" transform="translate(2.007 19.176)" fill="#0003ff"/>
    <rect id="Rectangle_19" data-name="Rectangle 19" width="35.507" height="4.685" transform="translate(10.062 11.85)" fill="#0003ff"/>
    <path id="Path_16" data-name="Path 16" d="M296.427,51.856a2.329,2.329,0,1,1,.273,3.281,2.334,2.334,0,0,1-.273-3.281" transform="translate(-279.368 -47.153)" fill="#0003ff" fill-rule="evenodd"/>
    <path id="Path_17" data-name="Path 17" d="M147.37,195.083a2.331,2.331,0,1,1,.275,3.285,2.33,2.33,0,0,1-.275-3.285" transform="translate(-138.627 -182.39)" fill="#0003ff" fill-rule="evenodd"/>
    <path id="Path_18" data-name="Path 18" d="M.551,326.459a2.331,2.331,0,1,1,.275,3.285,2.33,2.33,0,0,1-.275-3.285" transform="translate(0 -306.436)" fill="#0003ff" fill-rule="evenodd"/>
  </g>
</svg>
