<svg xmlns="http://www.w3.org/2000/svg" width="76.25" height="91" viewBox="0 0 76.25 91">
  <path id="target-svgrepo-com" d="M80.129,7.984l-6.753,5.97-4.1.063L60.691,23a32.865,32.865,0,1,1-2.249-2.18l8.288-8.288.006-3.652L73.1,1.533,73.09,8.072l7.039-.088ZM57.367,26.321l-8.36,8.363a17.476,17.476,0,1,1-2.334-2.1l8.448-8.448a28.615,28.615,0,1,0,2.246,2.183ZM36.253,51.287a4.7,4.7,0,0,1,0-9.395,4.417,4.417,0,0,1,.928.189l7.275-7.275A14.477,14.477,0,1,0,46.786,36.9l-6.872,6.875a4.626,4.626,0,0,1,1.035,2.818A4.691,4.691,0,0,1,36.253,51.287ZM22.675,80.84q1.4.708,2.878,1.277l-5.561,9.631a1.567,1.567,0,0,1-2.714-1.566ZM38.4,83.3V87.69a1.566,1.566,0,1,1-3.133,0V83.3c.522.025,1.038.079,1.566.079S37.882,83.328,38.4,83.3Zm19.17,6.882a1.568,1.568,0,0,1-2.717,1.566L49.3,82.12c.981-.381,1.944-.805,2.878-1.277Z" transform="translate(-3.879 -1.533)" fill="#0003ff"/>
</svg>
