<svg width="406" height="306" viewBox="0 0 406 306" fill="none" xmlns="http://www.w3.org/2000/svg">
<g clipPath="url(#clip0_1_174)">
<path opacity="0.18" d="M141.352 206.517C162.06 215.619 185.482 215.479 208.102 215.178C219.968 215.028 232.244 214.788 243.049 209.871C258.069 203.032 267.822 188.352 281 178.419C296.13 166.994 315.496 162.067 330.165 150.061C337.305 144.222 343.087 136.897 347.108 128.596C351.128 120.295 353.292 111.217 353.447 101.995C353.603 92.7723 351.746 83.627 348.007 75.1951C344.268 66.7633 338.737 59.2476 331.798 53.1712C324.037 46.3821 314.775 41.5857 305.592 36.8694L259.481 13.1376C248.676 7.58016 237.591 1.93259 225.535 0.420565C215.362 -0.851139 205.068 0.911223 195.124 3.18427C166.786 9.59286 138.669 20.6377 117.881 40.8547C99.997 58.2781 88.3214 81.6795 68.7551 97.1902C63.7484 101.146 58.201 104.64 54.5561 109.867C41.4385 128.702 54.7263 152.765 71.7692 162.418C95.3708 175.776 116.609 195.652 141.352 206.517Z" fill="#DD9856"/>
<path d="M203.005 306C290.206 306 360.897 297.267 360.897 286.494C360.897 275.721 290.206 266.988 203.005 266.988C115.804 266.988 45.1134 275.721 45.1134 286.494C45.1134 297.267 115.804 306 203.005 306Z" fill="#DD9856"/>
<path d="M203.005 306C290.206 306 360.897 297.267 360.897 286.494C360.897 275.721 290.206 266.988 203.005 266.988C115.804 266.988 45.1134 275.721 45.1134 286.494C45.1134 297.267 115.804 306 203.005 306Z" fill="url(#paint0_linear_1_174)"/>
<path d="M116.509 95.9285C113.58 93.9424 110.283 92.5646 106.812 91.8765C103.341 91.1885 99.7669 91.2044 96.302 91.9232C95.0338 92.1207 93.8356 92.6337 92.8174 93.4152C90.4442 95.4178 90.8147 99.1428 90.1838 102.207C89.4128 105.982 86.8794 109.216 85.9682 112.941C85.4375 115.744 85.407 118.619 85.8781 121.433C87.2123 132.531 89.8714 143.43 93.7987 153.896L82.7839 299.001C82.7839 299.001 94.049 300.823 116.9 302.646L119.323 164.46L116.509 95.9285Z" fill="#EEA886"/>
<path d="M103.982 180.552L118.572 239.551V154.457L112.083 135.171L103.982 180.552Z" fill="url(#paint1_linear_1_174)"/>
<path d="M294.768 97.1702C297.703 95.1988 301.003 93.8358 304.474 93.1616C307.945 92.4874 311.515 92.5157 314.975 93.2449C316.245 93.447 317.445 93.9595 318.47 94.7369C320.833 96.7396 320.472 100.465 321.093 103.539C321.874 107.314 324.408 110.548 325.319 114.273C325.851 117.073 325.878 119.945 325.399 122.754C324.074 133.854 321.418 144.753 317.488 155.218L328.453 298.3C328.453 298.3 316.187 300.362 294.267 302.435L291.914 165.772L294.768 97.1702Z" fill="#EEA886"/>
<path d="M309.167 176.336L303.99 202.922L292.966 226.904L291.994 174.714L309.167 176.336Z" fill="url(#paint2_linear_1_174)"/>
<path d="M301.437 48.4649H106.205C101.576 48.4649 97.8241 52.2173 97.8241 56.8462V173.633C97.8241 178.261 101.576 182.014 106.205 182.014H301.437C306.066 182.014 309.818 178.261 309.818 173.633V56.8462C309.818 52.2173 306.066 48.4649 301.437 48.4649Z" fill="#DD9856"/>
<path d="M301.437 48.4649H106.205C101.576 48.4649 97.8241 52.2173 97.8241 56.8462V173.633C97.8241 178.261 101.576 182.014 106.205 182.014H301.437C306.066 182.014 309.818 178.261 309.818 173.633V56.8462C309.818 52.2173 306.066 48.4649 301.437 48.4649Z" fill="url(#paint3_linear_1_174)"/>
<path d="M301.437 43.1078H106.205C101.576 43.1078 97.8241 46.8602 97.8241 51.489V168.275C97.8241 172.904 101.576 176.657 106.205 176.657H301.437C306.066 176.657 309.818 172.904 309.818 168.275V51.489C309.818 46.8602 306.066 43.1078 301.437 43.1078Z" fill="#DD9856"/>
<path d="M116.599 98.7824C119.974 95.0373 119.974 95.0373 123.789 90.5513L140.041 71.5258C142.597 68.7347 144.94 65.7557 147.05 62.6139H162.401C161.969 66.7417 161.772 70.8905 161.81 75.0405V99.3832H163.983C166.464 99.3597 168.94 99.1589 171.393 98.7824V112.421C168.958 112.118 166.506 111.968 164.053 111.97H161.81V115.715C161.741 118.797 161.938 121.879 162.401 124.927H146.98C147.398 121.824 147.595 118.696 147.571 115.565V111.95H126.342C121.466 111.95 119.333 112.02 116.599 112.24V98.7824ZM147.641 90.8517C147.641 87.4772 147.791 83.3617 148.091 80.0673C146.589 82.1601 145.468 83.6621 143.445 86.2055L132.481 99.5334H147.611L147.641 90.8517Z" fill="white"/>
<path d="M183.779 119.31C181.389 116.958 179.526 114.125 178.312 110.999C176.338 105.497 175.349 99.6907 175.388 93.8457C175.388 85.9752 177.26 77.8243 180.114 73.0979C184.68 65.4577 192.471 61.2621 201.904 61.2621C209.173 61.2621 215.542 63.7354 220.108 68.2715C222.501 70.6212 224.365 73.4547 225.575 76.5826C227.559 82.1059 228.549 87.937 228.499 93.8057C228.499 101.676 226.627 109.917 223.783 114.634C219.287 122.124 211.416 126.319 201.904 126.319C194.564 126.279 188.355 123.876 183.779 119.31ZM190.789 93.275C190.789 106.683 194.604 113.572 202.024 113.572C209.444 113.572 213.109 106.833 213.109 93.5453C213.068 80.6581 209.143 73.899 201.904 73.899C194.864 73.899 190.749 81.0386 190.749 93.2449L190.789 93.275Z" fill="white"/>
<path d="M232.384 98.7824C235.759 95.0373 235.759 95.0373 239.574 90.5513L255.836 71.5258C258.375 68.7336 260.702 65.7546 262.795 62.6139H278.156C277.716 66.7411 277.515 70.8902 277.555 75.0405V99.3832H279.728C282.209 99.3597 284.685 99.1589 287.138 98.7824V112.421C284.703 112.118 282.251 111.968 279.798 111.97H277.555V115.715C277.483 118.798 277.684 121.88 278.156 124.927H262.725C263.147 121.825 263.348 118.696 263.326 115.565V111.95H242.127C237.261 111.95 235.118 112.02 232.384 112.24V98.7824ZM263.426 90.8517C263.426 87.4772 263.576 83.3617 263.877 80.0673C262.375 82.1601 261.253 83.6621 259.23 86.2055L248.266 99.5334H263.396L263.426 90.8517Z" fill="white"/>
<path d="M117.32 146.867C118.581 146.661 119.857 146.56 121.135 146.566C122.686 146.449 124.225 146.905 125.461 147.848C125.907 148.255 126.258 148.755 126.492 149.312C126.725 149.868 126.835 150.469 126.813 151.072C126.844 151.673 126.754 152.274 126.55 152.84C126.345 153.406 126.029 153.925 125.621 154.367C124.99 154.953 124.247 155.405 123.436 155.695C122.626 155.986 121.765 156.11 120.905 156.059C120.371 156.079 119.836 156.031 119.313 155.919V162.097H117.31L117.32 146.867ZM119.323 154.297C119.861 154.421 120.413 154.475 120.965 154.457C123.368 154.457 124.83 153.295 124.83 151.163C124.83 149.03 123.388 148.159 121.195 148.159C120.567 148.141 119.939 148.195 119.323 148.319V154.297Z" fill="white"/>
<path d="M130.037 157.251L128.435 162.097H126.432L131.659 146.687H134.043L139.3 162.097H137.177L135.535 157.251H130.037ZM135.044 155.699L133.532 151.263C133.191 150.261 132.961 149.34 132.731 148.449C132.511 149.36 132.25 150.301 131.96 151.233L130.448 155.699H135.044Z" fill="white"/>
<path d="M152.948 161.406C151.428 161.955 149.827 162.243 148.212 162.257C147.159 162.359 146.097 162.228 145.1 161.875C144.103 161.522 143.195 160.954 142.441 160.213C141.687 159.471 141.105 158.573 140.735 157.582C140.365 156.591 140.217 155.531 140.301 154.477C140.301 149.881 143.475 146.526 148.642 146.526C149.959 146.494 151.269 146.736 152.487 147.237L152.007 148.859C150.935 148.39 149.772 148.164 148.602 148.199C144.847 148.199 142.404 150.532 142.404 154.387C142.404 158.242 144.757 160.615 148.352 160.615C149.256 160.663 150.16 160.52 151.005 160.195V155.609H147.871V154.006H152.948V161.406Z" fill="white"/>
<path d="M163.963 154.867H157.955V160.425H164.634V162.097H155.962V146.687H164.293V148.359H157.975V153.225H163.983L163.963 154.867Z" fill="white"/>
<path d="M172.094 162.097V146.687H174.266L179.203 154.477C180.231 156.086 181.158 157.759 181.977 159.484C181.797 157.481 181.747 155.558 181.747 153.155V146.707H183.629V162.117H181.626L176.73 154.297C175.667 152.64 174.704 150.921 173.846 149.15H173.776C173.896 151.102 173.936 152.955 173.936 155.508V162.097H172.094Z" fill="white"/>
<path d="M200.301 154.227C200.301 159.534 197.077 162.348 193.142 162.348C189.207 162.348 186.213 159.193 186.213 154.527C186.213 149.631 189.217 146.436 193.372 146.436C197.528 146.436 200.301 149.661 200.301 154.227ZM188.345 154.477C188.345 157.771 190.128 160.725 193.262 160.725C196.396 160.725 198.199 157.821 198.199 154.317C198.199 151.263 196.596 148.058 193.282 148.058C189.968 148.058 188.345 151.102 188.345 154.477Z" fill="white"/>
<path d="M205.238 148.379H200.552V146.687H211.967V148.379H207.251V162.097H205.248L205.238 148.379Z" fill="white"/>
<path d="M218.526 146.687H226.827V148.359H220.518V153.476H226.346V155.118H220.518V162.127H218.516L218.526 146.687Z" fill="white"/>
<path d="M242.828 154.227C242.828 159.534 239.604 162.348 235.679 162.348C231.603 162.348 228.749 159.193 228.749 154.527C228.749 149.631 231.754 146.436 235.899 146.436C240.045 146.436 242.828 149.661 242.828 154.227ZM230.872 154.477C230.872 157.771 232.655 160.725 235.789 160.725C238.923 160.725 240.726 157.821 240.726 154.317C240.726 151.263 239.123 148.058 235.809 148.058C232.495 148.058 230.872 151.102 230.872 154.477Z" fill="white"/>
<path d="M247.404 146.687V155.809C247.404 159.263 248.937 160.725 250.999 160.725C253.282 160.725 254.744 159.213 254.744 155.809V146.687H256.747V155.699C256.747 160.435 254.254 162.378 250.919 162.378C247.765 162.378 245.382 160.575 245.382 155.789V146.717L247.404 146.687Z" fill="white"/>
<path d="M260.212 162.097V146.687H262.385L267.321 154.477C268.35 156.084 269.273 157.757 270.085 159.484H270.135C269.955 157.481 269.905 155.558 269.905 153.155V146.707H271.777V162.117H269.774L264.888 154.297C263.822 152.642 262.859 150.923 262.004 149.15H261.934C262.044 151.102 262.094 152.955 262.094 155.508V162.097H260.212Z" fill="white"/>
<path d="M275.232 146.887C276.634 146.676 278.05 146.569 279.467 146.566C282.321 146.566 284.364 147.237 285.706 148.489C286.446 149.2 287.024 150.064 287.399 151.019C287.774 151.975 287.938 153.001 287.879 154.026C287.936 155.125 287.769 156.225 287.389 157.257C287.008 158.29 286.422 159.235 285.666 160.034C284.224 161.476 281.841 162.257 278.847 162.257C277.638 162.248 276.431 162.168 275.232 162.017V146.887ZM277.234 160.515C277.897 160.613 278.567 160.654 279.237 160.635C283.493 160.635 285.796 158.252 285.796 154.096C285.796 150.462 283.793 148.148 279.558 148.148C278.775 148.134 277.992 148.204 277.224 148.359L277.234 160.515Z" fill="white"/>
<path d="M106.806 94.1762C107.665 94.604 108.397 95.2496 108.929 96.0487C109.369 96.9877 109.585 98.0161 109.56 99.0527L109.86 105.511C109.996 106.574 109.869 107.654 109.49 108.656C109.288 109.15 108.918 109.557 108.446 109.806C107.973 110.055 107.428 110.13 106.906 110.017C107.29 111.274 107.414 112.596 107.271 113.903C107.128 115.209 106.721 116.473 106.075 117.618C105.751 118.1 105.498 118.626 105.324 119.18C105.241 119.848 105.275 120.526 105.424 121.182C105.651 122.802 105.53 124.452 105.069 126.022C104.608 127.591 103.818 129.045 102.751 130.285C102.424 130.691 102.023 131.031 101.569 131.286C100.973 131.54 100.334 131.676 99.6866 131.686L96.7426 131.937C96.5971 131.985 96.4425 131.998 96.2908 131.977C96.1391 131.956 95.9944 131.9 95.8677 131.814C95.741 131.728 95.6357 131.614 95.56 131.48C95.4842 131.347 95.4401 131.198 95.4309 131.046C93.1956 123.955 92.1798 116.537 92.4268 109.106C92.5426 105.362 92.9917 101.636 93.7686 97.9713C94.2393 95.8284 95.1605 92.564 97.4536 91.6929C100.418 90.6515 104.243 92.7042 106.806 94.1762Z" fill="#EEA886"/>
<path d="M300.185 94.1762C299.326 94.604 298.594 95.2496 298.062 96.0487C297.622 96.9877 297.406 98.0161 297.432 99.0527L297.131 105.511C296.995 106.574 297.122 107.654 297.502 108.656C297.704 109.15 298.073 109.557 298.546 109.806C299.018 110.055 299.563 110.13 300.085 110.017C299.702 111.274 299.578 112.595 299.719 113.901C299.86 115.207 300.264 116.472 300.906 117.618C301.237 118.097 301.494 118.624 301.667 119.18C301.752 119.848 301.714 120.527 301.557 121.182C301.335 122.803 301.459 124.453 301.921 126.022C302.384 127.591 303.175 129.044 304.241 130.285C304.567 130.691 304.968 131.031 305.422 131.286C306.018 131.54 306.657 131.676 307.305 131.686L310.279 131.977C310.424 132.025 310.579 132.038 310.73 132.017C310.882 131.996 311.027 131.94 311.154 131.854C311.28 131.768 311.386 131.654 311.461 131.52C311.537 131.387 311.581 131.239 311.59 131.086C313.826 123.995 314.842 116.577 314.595 109.146C314.48 105.401 314.028 101.675 313.243 98.0113C312.782 95.8685 312.241 93.1849 309.968 92.3137C306.974 91.2222 302.749 92.7042 300.185 94.1762Z" fill="#EEA886"/>
</g>
<defs>
<linearGradient id="paint0_linear_1_174" x1="202.044" y1="259.347" x2="204.958" y2="341.998" gradientUnits="userSpaceOnUse">
<stop stop-opacity="0"/>
<stop offset="0.95" stop-opacity="0.65"/>
</linearGradient>
<linearGradient id="paint1_linear_1_174" x1="112.904" y1="231.941" x2="109.99" y2="116.706" gradientUnits="userSpaceOnUse">
<stop stop-opacity="0"/>
<stop offset="0.99"/>
</linearGradient>
<linearGradient id="paint2_linear_1_174" x1="301.457" y1="216.06" x2="299.514" y2="143.773" gradientUnits="userSpaceOnUse">
<stop stop-opacity="0"/>
<stop offset="0.95"/>
</linearGradient>
<linearGradient id="paint3_linear_1_174" x1="200.251" y1="238.77" x2="204.787" y2="81.8797" gradientUnits="userSpaceOnUse">
<stop stop-opacity="0"/>
<stop offset="0.99"/>
</linearGradient>
<clipPath id="clip0_1_174">
<rect width="406" height="306" fill="white"/>
</clipPath>
</defs>
</svg>
