<svg xmlns="http://www.w3.org/2000/svg" width="23.249" height="20.365" viewBox="0 0 23.249 20.365">
  <path id="reply-svgrepo-com" d="M25.194,21.149c-.063-.741-.16-1.481-.293-2.214a9.552,9.552,0,0,0-.653-2.175c-.28-.64-.623-1.246-.959-1.858-.164-.3-.336-.587-.511-.878a9.385,9.385,0,0,0-.695-.971,13.826,13.826,0,0,0-1.4-1.475,10.245,10.245,0,0,0-1.779-1.4A17,17,0,0,0,17.02,9.19a9.492,9.492,0,0,0-1.084-.415,9.661,9.661,0,0,0-1.07-.249c-.367-.063-.732-.126-1.1-.208-.193-.043-.383-.094-.574-.142-.108-1.206-.125-2.42-.208-3.629,0-.024-.013-.046-.017-.069a.642.642,0,0,0-.175-.546.666.666,0,0,0-.467-.194.64.64,0,0,0-.469.194c-.207.249-.438.476-.663.71-.207.217-.418.428-.631.642-.458.459-.941.894-1.407,1.347S8.235,7.548,7.763,8s-.946.884-1.4,1.341c-.66.652-1.266,1.355-1.932,2-.643.623-1.25,1.282-1.844,1.954a.7.7,0,0,0-.379.179.71.71,0,0,0,0,.991c.537.563,1.079,1.119,1.616,1.682q.716.75,1.422,1.509c.485.519.993,1.014,1.5,1.512.49.478.978.961,1.468,1.439.59.575,1.2,1.131,1.808,1.682.292.263.6.517.893.776a10.666,10.666,0,0,1,.816.757.665.665,0,0,0,.868.192.638.638,0,0,0,.159-.14.661.661,0,0,0,.361-.594c-.029-.695-.022-1.392-.027-2.089,0-.648,0-1.3-.009-1.943a19.9,19.9,0,0,1,3.337,0,13.7,13.7,0,0,1,1.43.311,11.488,11.488,0,0,1,1.338.483,10.886,10.886,0,0,1,1.128.56,11.944,11.944,0,0,1,1.154.778c.363.284.723.573,1.084.86a7.9,7.9,0,0,1,1.041.949l.01.015a.768.768,0,0,0,.4.313.7.7,0,0,0,.536.286.684.684,0,0,0,.674-.674c.021-.341.051-.678.042-1.02C25.239,21.789,25.22,21.469,25.194,21.149Zm-2.029-.212c-.532-.409-1.072-.8-1.633-1.172a12.1,12.1,0,0,0-1.966-.988c-.338-.139-.674-.28-1.024-.387s-.7-.189-1.051-.27a11.984,11.984,0,0,0-1.329-.228,10.635,10.635,0,0,0-1.114-.051h-.081c-.818,0-1.633.036-2.45.061a.7.7,0,0,0-.645.488.64.64,0,0,0-.144.394c.008.428.019.857.024,1.285,0,.355,0,.712-.01,1.067,0,.3-.01.608-.015.913l-.386-.335c-.51-.45-1.009-.911-1.5-1.375s-.975-.947-1.459-1.426c-.5-.5-1.006-.993-1.5-1.5-.3-.3-.589-.614-.877-.927s-.59-.619-.886-.93c-.492-.516-.967-1.047-1.448-1.573.347-.4.691-.8,1.053-1.187.456-.482.94-.937,1.386-1.428s.922-.98,1.408-1.447c.464-.447.94-.883,1.4-1.331.325-.314.642-.635.969-.946s.679-.638,1.022-.951c.26-.237.516-.479.771-.722.015.237.037.473.048.711.028.614.064,1.227.128,1.84,0,.008-.008.015-.011.023a.712.712,0,0,0,.493.87q1,.238,2.014.415.507.087,1,.215a7.71,7.71,0,0,1,.937.322,12.981,12.981,0,0,1,2.557,1.439,17.8,17.8,0,0,1,2.413,2.379,16.155,16.155,0,0,1,.969,1.529c.3.535.606,1.069.859,1.632.078.191.155.384.223.58.089.254.159.514.223.776a12.912,12.912,0,0,1,.242,1.385c.057.472.094.948.115,1.424C23.655,21.316,23.408,21.124,23.165,20.937Z" transform="translate(-2.001 -3.737)" fill="#0003ff"/>
</svg>
