<svg id="Group_64" data-name="Group 64" xmlns="http://www.w3.org/2000/svg" fill="rgb(220 38 38)"  xmlns:xlink="http://www.w3.org/1999/xlink" width="83.379" height="83.383" viewBox="0 0 83.379 83.383">
  <defs>
    <clipPath id="clip-path">
      <rect id="Rectangle_327" data-name="Rectangle 327" width="83.379" height="83.383" fill="rgb(220 38 38)"/>
    </clipPath>
  </defs>
  <g id="Group_63" data-name="Group 63" clip-path="url(#clip-path)">
    <path id="Path_55" data-name="Path 55" d="M0,59.451V23.96c.065-.395.142-.788.194-1.185A26,26,0,0,1,25.907.038c10.528-.051,21.057-.061,31.584.03a26.524,26.524,0,0,1,6.662.894A25.86,25.86,0,0,1,83.366,26.131q.038,15.586,0,31.172c0,.812-.051,1.627-.123,2.436A25.877,25.877,0,0,1,64.286,82.416c-1.637.449-3.341.651-5.014.967H24.1a5.406,5.406,0,0,0-.63-.135A25.962,25.962,0,0,1,1,64.449c-.452-1.633-.671-3.33-1-5M41.659,4.911c-5.128,0-10.256-.012-15.384.01a22.418,22.418,0,0,0-3.325.215A21.085,21.085,0,0,0,4.888,26.166q-.024,15.543.006,31.087a20.3,20.3,0,0,0,.226,3.242,21.087,21.087,0,0,0,21.248,18q15.343.005,30.686-.008a22.454,22.454,0,0,0,3.325-.212,21.081,21.081,0,0,0,18.1-21q.034-15.584-.013-31.168a21.441,21.441,0,0,0-.405-4.2,21.05,21.05,0,0,0-20.858-17c-5.182-.01-10.364,0-15.546,0" transform="translate(0 0)" fill="#df994f"/>
    <path id="Path_56" data-name="Path 56" d="M62.34,84.4A14.2,14.2,0,1,1,48.112,98.551,14.237,14.237,0,0,1,62.34,84.4m0,23.52A9.318,9.318,0,1,0,53,98.549a9.356,9.356,0,0,0,9.336,9.374" transform="translate(-37.649 -66.047)" fill="#df994f"/>
    <path id="Path_57" data-name="Path 57" d="M218.682,84.4a14.2,14.2,0,1,1-14.2,14.252,14.25,14.25,0,0,1,14.2-14.252m-.007,4.885a9.317,9.317,0,1,0,9.365,9.277,9.336,9.336,0,0,0-9.365-9.277" transform="translate(-160.009 -66.045)" fill="#df994f"/>
    <path id="Path_58" data-name="Path 58" d="M164.11,288.756c1.655,0,3.31-.01,4.965,0a2.443,2.443,0,1,1,.051,4.87q-5.087.032-10.173-.016a2.43,2.43,0,1,1-.051-4.858c1.735-.039,3.472-.009,5.208-.009v.01" transform="translate(-122.398 -225.939)" fill="#df994f"/>
    <path id="Path_59" data-name="Path 59" d="M104.831,138.55a2.449,2.449,0,0,1,2.407,2.461,2.492,2.492,0,0,1-2.475,2.412,2.445,2.445,0,0,1-2.389-2.481,2.41,2.41,0,0,1,2.457-2.393" transform="translate(-80.109 -108.418)" fill="#df994f"/>
    <path id="Path_60" data-name="Path 60" d="M261.048,138.55a2.417,2.417,0,0,1,2.472,2.38,2.451,2.451,0,0,1-2.38,2.493,2.48,2.48,0,0,1-2.482-2.4,2.439,2.439,0,0,1,2.389-2.473" transform="translate(-202.404 -108.418)" fill="#df994f"/>
  </g>
</svg>
