<svg id="Group_13" data-name="Group 13" xmlns="http://www.w3.org/2000/svg" xmlns:xlink="http://www.w3.org/1999/xlink" width="30.987" height="31" viewBox="0 0 30.987 31">
  <defs>
    <clipPath id="clipPath">
      <rect id="Rectangle_24" data-name="Rectangle 24" width="30.987" height="31" fill="none"/>
    </clipPath>
  </defs>
  <g id="Group_12" data-name="Group 12" clipPath="url(#clipPath)">
    <path id="Path_27" data-name="Path 27" d="M24.777,22.609c.684.681,1.352,1.344,2.018,2.008q1.846,1.843,3.689,3.688a1.51,1.51,0,0,1,.431,1.589,1.47,1.47,0,0,1-1.166,1.069,1.563,1.563,0,0,1-1.5-.511Q25.675,27.874,23.1,25.3c-.169-.169-.314-.362-.472-.546a13.756,13.756,0,0,1-11.414,2.8,13.551,13.551,0,0,1-8.438-5.322,13.9,13.9,0,1,1,22,.374m-.048-8.682A10.821,10.821,0,1,0,13.9,24.744,10.8,10.8,0,0,0,24.729,13.927" transform="translate(0 0)"/>
  </g>
</svg>
