<svg xmlns="http://www.w3.org/2000/svg" width="46.295" height="50" viewBox="0 0 46.295 50">
  <path id="box-packed-svgrepo-com" d="M45.385,12.041,26.524,1.239a4.389,4.389,0,0,0-4.252,0L3.41,12.041a4.287,4.287,0,0,0-2.16,3.738V36.046a4.287,4.287,0,0,0,2.16,3.429L22.271,50.141a4.389,4.389,0,0,0,4.252,0L45.385,39.475a4.287,4.287,0,0,0,2.16-3.429v-20.4a4.287,4.287,0,0,0-2.16-3.6ZM22.271,45.34l-7.3-4.115V23.049l7.3,3.978ZM24.4,23.324l-7.133-3.909L33.76,10.258,40.927,14.3Zm0-18.347L29.4,7.789l-16.6,9.225L7.869,14.3ZM5.537,17.905l5.144,2.812V38.79L5.537,36.046ZM26.524,45.34V27.027l16.735-9.122V36.046Z" transform="translate(-1.25 -0.69)" fill="#df994f"/>
</svg>
